<svg width="25" height="24" viewBox="0 0 25 24" fill="none" xmlns="http://www.w3.org/2000/svg">
<path fill-rule="evenodd" clip-rule="evenodd" d="M4.51758 3C3.9653 3 3.51758 3.44772 3.51758 4V16C3.51758 16.5523 3.9653 17 4.51758 17H16.5176C17.0699 17 17.5176 16.5523 17.5176 16V4C17.5176 3.44772 17.0699 3 16.5176 3H4.51758ZM1.51758 4C1.51758 2.34315 2.86073 1 4.51758 1L16.5176 1C18.1745 1 19.5176 2.34315 19.5176 4V16C19.5176 17.6569 18.1745 19 16.5176 19H4.51758C2.86073 19 1.51758 17.6569 1.51758 16V4Z" fill="#F5F5F5"/>
<path fill-rule="evenodd" clip-rule="evenodd" d="M17.5176 6C17.5176 5.44772 17.9653 5 18.5176 5H20.5176C22.1745 5 23.5176 6.34315 23.5176 8V20C23.5176 21.6569 22.1745 23 20.5176 23H8.51758C6.86073 23 5.51758 21.6569 5.51758 20V18C5.51758 17.4477 5.9653 17 6.51758 17C7.06986 17 7.51758 17.4477 7.51758 18V20C7.51758 20.5523 7.9653 21 8.51758 21H20.5176C21.0699 21 21.5176 20.5523 21.5176 20V8C21.5176 7.44772 21.0699 7 20.5176 7H18.5176C17.9653 7 17.5176 6.55228 17.5176 6Z" fill="#F5F5F5"/>
<path fill-rule="evenodd" clip-rule="evenodd" d="M4.38115 10.0023C7.21678 9.95191 10.0019 10.7243 12.2413 12.209C14.3226 13.5889 15.8266 15.5165 16.4766 17.7166C16.566 18.0191 16.5074 18.346 16.3186 18.5986C16.1299 18.8512 15.833 19 15.5176 19H4.51758C2.86073 19 1.51758 17.6569 1.51758 16V11.1185C1.51758 10.615 1.89198 10.19 2.3915 10.1265C3.04981 10.0428 3.71501 10.0013 4.38115 10.0023Z" fill="#F5F5F5"/>
<path fill-rule="evenodd" clip-rule="evenodd" d="M12.2676 7C12.2676 6.30964 12.8272 5.75 13.5176 5.75H13.5266C14.2169 5.75 14.7766 6.30964 14.7766 7C14.7766 7.69036 14.2169 8.25 13.5266 8.25H13.5176C12.8272 8.25 12.2676 7.69036 12.2676 7Z" fill="#F5F5F5"/>
</svg>
