<svg width="589" height="436" viewBox="0 0 589 436" fill="none" xmlns="http://www.w3.org/2000/svg">
<path d="M534.975 6.6033C502.676 -6.76752 465.86 0.558516 441.143 25.2654L320.861 145.519L367.001 191.644L374.908 183.739C405.44 153.213 457.647 174.831 457.647 218.001C457.647 261.17 405.441 282.789 374.908 252.264L147.857 25.2616C123.187 0.601445 86.4414 -6.74197 54.1932 6.53382C21.7872 19.8747 0.875 51.7369 0.875 86.7741V349.869C0.875 384.807 21.7364 416.023 54.0214 429.394C64.7404 433.832 75.9518 435.984 87.0606 435.984C109.419 435.984 131.346 427.235 147.857 410.728L268.136 290.482L221.999 244.353L214.104 252.245C183.585 282.757 131.403 261.147 131.403 217.998C131.403 174.848 183.585 153.239 214.104 183.749L441.143 410.728C465.853 435.439 502.69 442.772 534.975 429.394C567.26 416.023 588.125 384.807 588.125 349.869V86.1278C588.125 51.1894 567.26 19.9741 534.975 6.6033Z" fill="#A3A3A3"/>
</svg>
